<svg width="270" height="75" viewBox="0 0 270 75" fill="none" xmlns="http://www.w3.org/2000/svg">
<path d="M24.745 11.1094C25.7077 11.1161 26.6698 11.1228 27.5883 11.1228H36.9331C37.8514 11.1228 38.8136 11.1161 39.7762 11.1094C42.3679 11.0914 44.9634 11.0733 46.7201 11.1858C53.115 11.5953 57.5253 15.4701 58.0923 22.054C58.2268 24.4199 58.2235 27.2699 58.2198 30.6311C58.219 31.2079 58.2184 31.8009 58.2184 32.408V41.7528C58.2184 42.36 58.219 42.9519 58.2198 43.5288C58.2235 46.8904 58.2268 49.7409 58.0923 52.1069C57.5253 58.6908 53.115 62.5657 46.7201 62.9751C44.9634 63.0877 42.3679 63.0696 39.7762 63.0516C38.8136 63.0448 37.8514 63.0381 36.9331 63.0381H27.5883C26.6698 63.0381 25.7077 63.0448 24.745 63.0516C22.1535 63.0696 19.558 63.0877 17.8013 62.9751C11.4064 62.5657 6.99608 58.6908 6.42904 52.1069C6.29459 49.741 6.29785 46.8909 6.30168 43.5298C6.30234 42.953 6.30301 42.36 6.30301 41.7528V32.408C6.30301 31.8009 6.30234 31.2089 6.30168 30.6321C6.29785 27.2709 6.29459 24.4199 6.42904 22.054C6.99608 15.4701 11.4064 11.5953 17.8013 11.1858C19.558 11.0733 22.1535 11.0914 24.745 11.1094Z" fill="url(#paint0_linear_1_13)"/>
<g filter="url(#filter0_dddddd_1_13)">
<path d="M14.7429 29.6191C14.7429 28.297 15.8148 27.225 17.1371 27.225H33.8962C37.2366 27.225 39.9445 29.933 39.9445 33.2735V44.4252C39.9445 45.7474 38.8727 46.8192 37.5504 46.8192H20.7913C17.4509 46.8192 14.7429 44.1113 14.7429 40.7709V29.6191Z" fill="url(#paint1_linear_1_13)"/>
<path d="M17.1371 27.5086H33.8962C37.08 27.5086 39.661 30.0896 39.661 33.2735V44.4252C39.661 45.5908 38.7161 46.5357 37.5504 46.5357H20.7913C17.6074 46.5357 15.0264 43.9547 15.0264 40.7709V29.6191C15.0264 28.4535 15.9714 27.5086 17.1371 27.5086Z" stroke="url(#paint2_linear_1_13)" stroke-width="0.567037"/>
</g>
<g filter="url(#filter1_dddddd_1_13)">
<path d="M41.4566 34.1623C41.4566 33.3473 41.8073 32.5717 42.4191 32.0335L47.2206 27.8096C48.2382 26.9145 49.8361 27.637 49.8361 28.9922V45.1001C49.8361 46.4426 48.2643 47.1697 47.2413 46.3005L42.8336 42.5557C41.9601 41.8136 41.4566 40.7252 41.4566 39.5789V34.1623Z" fill="url(#paint3_linear_1_13)"/>
<path d="M42.6064 32.2464L47.4079 28.0225C48.2424 27.2884 49.5526 27.8809 49.5526 28.9922V45.1001C49.5526 46.201 48.2636 46.7972 47.4248 46.0844L43.0172 42.3396C42.207 41.6513 41.7401 40.6419 41.7401 39.5789V34.1623C41.7401 33.4288 42.0557 32.7308 42.6064 32.2464Z" stroke="url(#paint4_linear_1_13)" stroke-width="0.567037"/>
</g>
<path d="M66.6548 22.4545H74.6193L83.0312 42.9773H83.3892L91.8011 22.4545H99.7656V53H93.5014V33.1186H93.2479L85.343 52.8509H81.0774L73.1726 33.044H72.919V53H66.6548V22.4545ZM115.407 53.4474C113.051 53.4474 111.023 52.9702 109.322 52.0156C107.632 51.0511 106.329 49.6889 105.415 47.929C104.5 46.1591 104.042 44.0661 104.042 41.6499C104.042 39.2933 104.5 37.2251 105.415 35.4453C106.329 33.6655 107.617 32.2784 109.278 31.2841C110.948 30.2898 112.907 29.7926 115.154 29.7926C116.665 29.7926 118.072 30.0362 119.375 30.5234C120.687 31.0007 121.831 31.7216 122.805 32.6861C123.79 33.6506 124.555 34.8636 125.102 36.3253C125.649 37.777 125.922 39.4773 125.922 41.4261V43.1712H106.578V39.2337H119.942C119.942 38.3189 119.743 37.5085 119.345 36.8026C118.947 36.0966 118.395 35.5447 117.689 35.147C116.993 34.7393 116.183 34.5355 115.258 34.5355C114.294 34.5355 113.439 34.7592 112.693 35.2067C111.957 35.6442 111.381 36.2358 110.963 36.9815C110.545 37.7173 110.331 38.5376 110.322 39.4425V43.1861C110.322 44.3196 110.53 45.299 110.948 46.1243C111.376 46.9496 111.977 47.5859 112.753 48.0334C113.528 48.4808 114.448 48.7045 115.512 48.7045C116.218 48.7045 116.864 48.6051 117.451 48.4062C118.037 48.2074 118.54 47.9091 118.957 47.5114C119.375 47.1136 119.693 46.6264 119.912 46.0497L125.788 46.4375C125.49 47.8494 124.878 49.0824 123.954 50.1364C123.039 51.1804 121.856 51.9957 120.404 52.5824C118.962 53.1591 117.297 53.4474 115.407 53.4474ZM140.509 53.4474C138.153 53.4474 136.124 52.9702 134.424 52.0156C132.733 51.0511 131.431 49.6889 130.516 47.929C129.601 46.1591 129.144 44.0661 129.144 41.6499C129.144 39.2933 129.601 37.2251 130.516 35.4453C131.431 33.6655 132.719 32.2784 134.379 31.2841C136.05 30.2898 138.008 29.7926 140.256 29.7926C141.767 29.7926 143.174 30.0362 144.476 30.5234C145.789 31.0007 146.932 31.7216 147.907 32.6861C148.891 33.6506 149.657 34.8636 150.204 36.3253C150.751 37.777 151.024 39.4773 151.024 41.4261V43.1712H131.68V39.2337H145.043C145.043 38.3189 144.844 37.5085 144.447 36.8026C144.049 36.0966 143.497 35.5447 142.791 35.147C142.095 34.7393 141.285 34.5355 140.36 34.5355C139.395 34.5355 138.54 34.7592 137.795 35.2067C137.059 35.6442 136.482 36.2358 136.064 36.9815C135.647 37.7173 135.433 38.5376 135.423 39.4425V43.1861C135.423 44.3196 135.632 45.299 136.05 46.1243C136.477 46.9496 137.079 47.5859 137.854 48.0334C138.63 48.4808 139.55 48.7045 140.613 48.7045C141.319 48.7045 141.966 48.6051 142.552 48.4062C143.139 48.2074 143.641 47.9091 144.059 47.5114C144.476 47.1136 144.795 46.6264 145.013 46.0497L150.89 46.4375C150.591 47.8494 149.98 49.0824 149.055 50.1364C148.14 51.1804 146.957 51.9957 145.506 52.5824C144.064 53.1591 142.398 53.4474 140.509 53.4474ZM167.356 30.0909V34.8636H153.559V30.0909H167.356ZM156.692 24.6023H163.045V45.9602C163.045 46.5469 163.135 47.0043 163.314 47.3324C163.493 47.6506 163.741 47.8743 164.059 48.0036C164.388 48.1328 164.765 48.1974 165.193 48.1974C165.491 48.1974 165.79 48.1726 166.088 48.1229C166.386 48.0632 166.615 48.0185 166.774 47.9886L167.773 52.7166C167.455 52.8161 167.008 52.9304 166.431 53.0597C165.854 53.1989 165.153 53.2834 164.328 53.3132C162.797 53.3729 161.454 53.169 160.301 52.7017C159.157 52.2344 158.268 51.5085 157.631 50.5241C156.995 49.5398 156.682 48.2969 156.692 46.7955V24.6023ZM172.106 53V22.4545H192.688V27.7791H178.564V35.0575H191.629V40.3821H178.564V47.6754H192.748V53H172.106ZM204.236 53.4325C202.775 53.4325 201.472 53.179 200.328 52.6719C199.185 52.1548 198.28 51.3942 197.614 50.3899C196.958 49.3757 196.63 48.1129 196.63 46.6016C196.63 45.3288 196.863 44.2599 197.331 43.3949C197.798 42.5298 198.434 41.8338 199.24 41.3068C200.045 40.7798 200.96 40.3821 201.984 40.1136C203.018 39.8452 204.102 39.6562 205.235 39.5469C206.568 39.4077 207.642 39.2784 208.457 39.1591C209.272 39.0298 209.864 38.8409 210.232 38.5923C210.6 38.3437 210.784 37.9759 210.784 37.4886V37.3991C210.784 36.4545 210.485 35.7237 209.889 35.2067C209.302 34.6896 208.467 34.4311 207.383 34.4311C206.24 34.4311 205.33 34.6847 204.654 35.1918C203.978 35.6889 203.53 36.3153 203.311 37.071L197.435 36.5938C197.733 35.2017 198.32 33.9986 199.195 32.9844C200.07 31.9602 201.199 31.1747 202.581 30.6278C203.973 30.071 205.583 29.7926 207.413 29.7926C208.686 29.7926 209.904 29.9418 211.067 30.2401C212.24 30.5384 213.279 31.0007 214.184 31.6271C215.099 32.2536 215.82 33.0589 216.347 34.0433C216.874 35.0178 217.137 36.1861 217.137 37.5483V53H211.112V49.8232H210.933C210.565 50.5391 210.073 51.1705 209.456 51.7173C208.84 52.2543 208.099 52.6768 207.234 52.9851C206.369 53.2834 205.37 53.4325 204.236 53.4325ZM206.056 49.0476C206.99 49.0476 207.816 48.8636 208.532 48.4957C209.248 48.1179 209.809 47.6108 210.217 46.9744C210.625 46.3381 210.828 45.6172 210.828 44.8118V42.3807C210.63 42.5099 210.356 42.6293 210.008 42.7386C209.67 42.8381 209.287 42.9325 208.86 43.022C208.432 43.1016 208.005 43.1761 207.577 43.2457C207.15 43.3054 206.762 43.3601 206.414 43.4098C205.668 43.5192 205.017 43.6932 204.46 43.9318C203.903 44.1705 203.471 44.4936 203.162 44.9013C202.854 45.299 202.7 45.7962 202.7 46.3928C202.7 47.2578 203.013 47.919 203.64 48.3764C204.276 48.8239 205.081 49.0476 206.056 49.0476ZM241.128 36.6236L235.311 36.9815C235.212 36.4844 234.998 36.0369 234.67 35.6392C234.342 35.2315 233.909 34.9084 233.372 34.6697C232.845 34.4212 232.214 34.2969 231.478 34.2969C230.494 34.2969 229.663 34.5057 228.987 34.9233C228.311 35.331 227.973 35.8778 227.973 36.5639C227.973 37.1108 228.192 37.5732 228.629 37.951C229.067 38.3288 229.817 38.6321 230.881 38.8608L235.028 39.696C237.255 40.1534 238.915 40.8892 240.009 41.9034C241.103 42.9176 241.65 44.25 241.65 45.9006C241.65 47.402 241.207 48.7195 240.322 49.853C239.447 50.9865 238.244 51.8714 236.713 52.5078C235.192 53.1342 233.437 53.4474 231.448 53.4474C228.415 53.4474 225.999 52.8161 224.2 51.5533C222.41 50.2805 221.361 48.5504 221.053 46.3629L227.302 46.0348C227.491 46.9595 227.948 47.6655 228.674 48.1527C229.4 48.63 230.33 48.8686 231.463 48.8686C232.577 48.8686 233.472 48.6548 234.148 48.2273C234.834 47.7898 235.182 47.228 235.192 46.5419C235.182 45.9652 234.938 45.4929 234.461 45.125C233.984 44.7472 233.248 44.4588 232.254 44.2599L228.286 43.4695C226.049 43.022 224.384 42.2464 223.29 41.1428C222.206 40.0391 221.664 38.6321 221.664 36.9219C221.664 35.4503 222.062 34.1825 222.857 33.1186C223.663 32.0547 224.791 31.2344 226.243 30.6577C227.705 30.081 229.415 29.7926 231.374 29.7926C234.267 29.7926 236.544 30.4041 238.205 31.6271C239.875 32.8501 240.849 34.5156 241.128 36.6236ZM256.091 53.4474C253.735 53.4474 251.706 52.9702 250.006 52.0156C248.316 51.0511 247.013 49.6889 246.098 47.929C245.183 46.1591 244.726 44.0661 244.726 41.6499C244.726 39.2933 245.183 37.2251 246.098 35.4453C247.013 33.6655 248.301 32.2784 249.961 31.2841C251.632 30.2898 253.59 29.7926 255.838 29.7926C257.349 29.7926 258.756 30.0362 260.058 30.5234C261.371 31.0007 262.514 31.7216 263.489 32.6861C264.473 33.6506 265.239 34.8636 265.786 36.3253C266.333 37.777 266.606 39.4773 266.606 41.4261V43.1712H247.262V39.2337H260.625C260.625 38.3189 260.426 37.5085 260.029 36.8026C259.631 36.0966 259.079 35.5447 258.373 35.147C257.677 34.7393 256.867 34.5355 255.942 34.5355C254.977 34.5355 254.122 34.7592 253.377 35.2067C252.641 35.6442 252.064 36.2358 251.646 36.9815C251.229 37.7173 251.015 38.5376 251.005 39.4425V43.1861C251.005 44.3196 251.214 45.299 251.632 46.1243C252.059 46.9496 252.661 47.5859 253.436 48.0334C254.212 48.4808 255.132 48.7045 256.195 48.7045C256.901 48.7045 257.548 48.6051 258.134 48.4062C258.721 48.2074 259.223 47.9091 259.641 47.5114C260.058 47.1136 260.377 46.6264 260.595 46.0497L266.472 46.4375C266.173 47.8494 265.562 49.0824 264.637 50.1364C263.722 51.1804 262.539 51.9957 261.088 52.5824C259.646 53.1591 257.98 53.4474 256.091 53.4474Z" fill="white"/>
<defs>
<filter id="filter0_dddddd_1_13" x="10.2066" y="25.5239" width="34.2742" height="28.6668" filterUnits="userSpaceOnUse" color-interpolation-filters="sRGB">
<feFlood flood-opacity="0" result="BackgroundImageFix"/>
<feColorMatrix in="SourceAlpha" type="matrix" values="0 0 0 0 0 0 0 0 0 0 0 0 0 0 0 0 0 0 127 0" result="hardAlpha"/>
<feOffset dy="0.155601"/>
<feGaussianBlur stdDeviation="0.057319"/>
<feColorMatrix type="matrix" values="0 0 0 0 0.0509804 0 0 0 0 0.121569 0 0 0 0 0.396078 0 0 0 0.189957 0"/>
<feBlend mode="multiply" in2="BackgroundImageFix" result="effect1_dropShadow_1_13"/>
<feColorMatrix in="SourceAlpha" type="matrix" values="0 0 0 0 0 0 0 0 0 0 0 0 0 0 0 0 0 0 127 0" result="hardAlpha"/>
<feOffset dy="0.305287"/>
<feGaussianBlur stdDeviation="0.127482"/>
<feColorMatrix type="matrix" values="0 0 0 0 0.0509804 0 0 0 0 0.121569 0 0 0 0 0.396078 0 0 0 0.368551 0"/>
<feBlend mode="multiply" in2="effect1_dropShadow_1_13" result="effect2_dropShadow_1_13"/>
<feColorMatrix in="SourceAlpha" type="matrix" values="0 0 0 0 0 0 0 0 0 0 0 0 0 0 0 0 0 0 127 0" result="hardAlpha"/>
<feOffset dy="0.469499"/>
<feGaussianBlur stdDeviation="0.21833"/>
<feColorMatrix type="matrix" values="0 0 0 0 0.0509804 0 0 0 0 0.121569 0 0 0 0 0.396078 0 0 0 0.3 0"/>
<feBlend mode="multiply" in2="effect2_dropShadow_1_13" result="effect3_dropShadow_1_13"/>
<feColorMatrix in="SourceAlpha" type="matrix" values="0 0 0 0 0 0 0 0 0 0 0 0 0 0 0 0 0 0 127 0" result="hardAlpha"/>
<feOffset dy="0.688904"/>
<feGaussianBlur stdDeviation="0.69336"/>
<feColorMatrix type="matrix" values="0 0 0 0 0.0509804 0 0 0 0 0.121569 0 0 0 0 0.396078 0 0 0 0.3 0"/>
<feBlend mode="multiply" in2="effect3_dropShadow_1_13" result="effect4_dropShadow_1_13"/>
<feColorMatrix in="SourceAlpha" type="matrix" values="0 0 0 0 0 0 0 0 0 0 0 0 0 0 0 0 0 0 127 0" result="hardAlpha"/>
<feOffset dy="1.07196"/>
<feGaussianBlur stdDeviation="1.28906"/>
<feColorMatrix type="matrix" values="0 0 0 0 0.0509804 0 0 0 0 0.121569 0 0 0 0 0.396078 0 0 0 0.29 0"/>
<feBlend mode="overlay" in2="effect4_dropShadow_1_13" result="effect5_dropShadow_1_13"/>
<feColorMatrix in="SourceAlpha" type="matrix" values="0 0 0 0 0 0 0 0 0 0 0 0 0 0 0 0 0 0 127 0" result="hardAlpha"/>
<feOffset dy="2.83518"/>
<feGaussianBlur stdDeviation="2.26815"/>
<feColorMatrix type="matrix" values="0 0 0 0 0.0509804 0 0 0 0 0.121569 0 0 0 0 0.396078 0 0 0 0.45 0"/>
<feBlend mode="multiply" in2="effect5_dropShadow_1_13" result="effect6_dropShadow_1_13"/>
<feBlend mode="normal" in="SourceGraphic" in2="effect6_dropShadow_1_13" result="shape"/>
</filter>
<filter id="filter1_dddddd_1_13" x="36.9203" y="25.7129" width="17.4521" height="28.3369" filterUnits="userSpaceOnUse" color-interpolation-filters="sRGB">
<feFlood flood-opacity="0" result="BackgroundImageFix"/>
<feColorMatrix in="SourceAlpha" type="matrix" values="0 0 0 0 0 0 0 0 0 0 0 0 0 0 0 0 0 0 127 0" result="hardAlpha"/>
<feOffset dy="0.155601"/>
<feGaussianBlur stdDeviation="0.057319"/>
<feColorMatrix type="matrix" values="0 0 0 0 0.0509804 0 0 0 0 0.121569 0 0 0 0 0.396078 0 0 0 0.189957 0"/>
<feBlend mode="multiply" in2="BackgroundImageFix" result="effect1_dropShadow_1_13"/>
<feColorMatrix in="SourceAlpha" type="matrix" values="0 0 0 0 0 0 0 0 0 0 0 0 0 0 0 0 0 0 127 0" result="hardAlpha"/>
<feOffset dy="0.305287"/>
<feGaussianBlur stdDeviation="0.127482"/>
<feColorMatrix type="matrix" values="0 0 0 0 0.0509804 0 0 0 0 0.121569 0 0 0 0 0.396078 0 0 0 0.368551 0"/>
<feBlend mode="multiply" in2="effect1_dropShadow_1_13" result="effect2_dropShadow_1_13"/>
<feColorMatrix in="SourceAlpha" type="matrix" values="0 0 0 0 0 0 0 0 0 0 0 0 0 0 0 0 0 0 127 0" result="hardAlpha"/>
<feOffset dy="0.469499"/>
<feGaussianBlur stdDeviation="0.21833"/>
<feColorMatrix type="matrix" values="0 0 0 0 0.0509804 0 0 0 0 0.121569 0 0 0 0 0.396078 0 0 0 0.3 0"/>
<feBlend mode="multiply" in2="effect2_dropShadow_1_13" result="effect3_dropShadow_1_13"/>
<feColorMatrix in="SourceAlpha" type="matrix" values="0 0 0 0 0 0 0 0 0 0 0 0 0 0 0 0 0 0 127 0" result="hardAlpha"/>
<feOffset dy="0.688904"/>
<feGaussianBlur stdDeviation="0.69336"/>
<feColorMatrix type="matrix" values="0 0 0 0 0.0509804 0 0 0 0 0.121569 0 0 0 0 0.396078 0 0 0 0.3 0"/>
<feBlend mode="multiply" in2="effect3_dropShadow_1_13" result="effect4_dropShadow_1_13"/>
<feColorMatrix in="SourceAlpha" type="matrix" values="0 0 0 0 0 0 0 0 0 0 0 0 0 0 0 0 0 0 127 0" result="hardAlpha"/>
<feOffset dy="1.07196"/>
<feGaussianBlur stdDeviation="1.28906"/>
<feColorMatrix type="matrix" values="0 0 0 0 0.0509804 0 0 0 0 0.121569 0 0 0 0 0.396078 0 0 0 0.29 0"/>
<feBlend mode="overlay" in2="effect4_dropShadow_1_13" result="effect5_dropShadow_1_13"/>
<feColorMatrix in="SourceAlpha" type="matrix" values="0 0 0 0 0 0 0 0 0 0 0 0 0 0 0 0 0 0 127 0" result="hardAlpha"/>
<feOffset dy="2.83518"/>
<feGaussianBlur stdDeviation="2.26815"/>
<feColorMatrix type="matrix" values="0 0 0 0 0.0509804 0 0 0 0 0.121569 0 0 0 0 0.396078 0 0 0 0.45 0"/>
<feBlend mode="multiply" in2="effect5_dropShadow_1_13" result="effect6_dropShadow_1_13"/>
<feBlend mode="normal" in="SourceGraphic" in2="effect6_dropShadow_1_13" result="shape"/>
</filter>
<linearGradient id="paint0_linear_1_13" x1="32.2606" y1="11.096" x2="32.2606" y2="63.0649" gradientUnits="userSpaceOnUse">
<stop stop-color="#A4C1FF"/>
<stop offset="1" stop-color="#0E78F9"/>
</linearGradient>
<linearGradient id="paint1_linear_1_13" x1="27.3438" y1="27.225" x2="27.3438" y2="46.8192" gradientUnits="userSpaceOnUse">
<stop stop-color="white"/>
<stop offset="1" stop-color="#C5D4F7"/>
</linearGradient>
<linearGradient id="paint2_linear_1_13" x1="27.3438" y1="27.225" x2="27.3438" y2="46.8192" gradientUnits="userSpaceOnUse">
<stop stop-color="white"/>
<stop offset="1" stop-color="#637ACA"/>
</linearGradient>
<linearGradient id="paint3_linear_1_13" x1="45.6464" y1="27.4141" x2="45.6464" y2="46.6782" gradientUnits="userSpaceOnUse">
<stop stop-color="white"/>
<stop offset="1" stop-color="#C5D4F7"/>
</linearGradient>
<linearGradient id="paint4_linear_1_13" x1="45.6464" y1="27.4141" x2="45.6464" y2="46.6782" gradientUnits="userSpaceOnUse">
<stop stop-color="white"/>
<stop offset="1" stop-color="#637ACA"/>
</linearGradient>
</defs>
</svg>
